<?xml version="1.0" encoding="UTF-8" standalone="no"?>
<svg>
<g id="Logo_without-strap" viewBox="0 0 3120 1024">
	<path d="M450.173 223.086c-38.079 0-68.931 30.866-68.931 68.931 0 38.091 30.853 68.931 68.931 68.931 38.082 0 68.931-30.837 68.931-68.931 0-38.066-30.85-68.931-68.931-68.931zM331.845 306.087c-18.673 0-33.808 15.131-33.808 33.808 0 18.68 15.131 33.808 33.808 33.808 18.683 0 33.808-15.128 33.808-33.808 0-18.676-15.125-33.808-33.808-33.808zM565.666 306.087c-18.667 0-33.808 15.131-33.808 33.808 0 18.68 15.138 33.808 33.808 33.808 18.683 0 33.808-15.128 33.808-33.808 0-18.676-15.125-33.808-33.808-33.808zM284.879 387.469c-38.085 0-68.931 30.856-68.931 68.931 0 38.082 30.846 68.931 68.931 68.931 38.079 0 68.932-30.846 68.932-68.931 0-38.075-30.853-68.931-68.932-68.931zM617.39 388.38c-38.082 0-68.931 30.84-68.931 68.931 0 38.072 30.85 68.931 68.931 68.931 38.079 0 68.931-30.856 68.931-68.931 0-38.091-30.853-68.931-68.931-68.931zM331.845 541.831c-18.673 0-33.808 15.223-33.808 33.909 0 18.67 15.131 33.707 33.808 33.707 18.683 0 33.808-15.037 33.808-33.707 0-18.689-15.125-33.909-33.808-33.909zM565.666 541.831c-18.667 0-33.808 15.223-33.808 33.909 0 18.67 15.138 33.707 33.808 33.707 18.683 0 33.808-15.037 33.808-33.707 0-18.689-15.125-33.909-33.808-33.909zM448.249 554.585c-38.079 0.003-68.931 30.961-68.931 69.033 0 38.085 30.853 68.931 68.931 68.931 38.082 0 69.033-30.846 69.033-68.931 0-38.072-30.948-69.033-69.033-69.033z"></path>
	<path d="M2115.737 687.297h106.753v-328.912h-106.753zM1240.44 585.888c0-24.695 19.353-38.713 52.042-40.032l52.706-3.33v54.031c-6.669 11.34-26.023 30.020-54.708 30.020-29.356 0-50.040-15.34-50.040-40.689zM1148.375 385.736l28.018 69.387c16.684-10.676 58.715-29.362 100.748-29.362 42.701 0 67.376 18.022 67.376 52.703v7.346l-82.716 3.333c-60.716 2.675-128.105 27.351-128.105 100.745 0 73.381 61.39 104.742 119.431 104.742 53.367 0 80.050-28.018 94.072-42.027l1.995 34.697h102.073v-185.479c0-55.369-14.009-87.4-39.358-111.421-26.023-24.014-61.38-38.020-122.748-38.020-61.397-0.003-112.768 19.34-140.786 33.356zM1582.013 521.835c0-50.698 31.37-85.398 76.734-85.398 46.030 0 77.388 34.697 77.388 85.398s-31.357 85.398-77.388 85.398c-45.363 0-76.734-34.697-76.734-85.398zM1580.685 400.412h-1.328l0.654-42.027h-101.399v449.664h106.753v-162.132c20.672 30.693 55.372 48.706 104.078 48.706 95.391 0 155.44-74.712 155.44-171.454 0-96.738-60.049-170.796-154.785-170.796-50.037 0.003-85.401 19.347-109.413 48.039zM1976.966 405.080h-1.328l0.674-46.694h-106.744v328.912h106.744v-146.118c0-36.692 8.665-58.034 16.675-68.714 8.010-10.676 25.359-24.011 49.37-24.011 18.68 0 32.679 4.658 38.7 8.001h4.668l6.002-98.066c0 0-11.343-6.008-33.353-6.008-35.361-0.003-62.712 16.672-81.408 52.7zM2692.826 585.888c0-24.695 19.344-38.713 52.026-40.032l52.709-3.33v54.031c-6.672 11.34-26.023 30.020-54.714 30.020-29.34 0-50.021-15.34-50.021-40.689zM2600.749 385.736l28.015 69.387c16.694-10.676 58.711-29.362 100.751-29.362 42.701 0 67.376 18.022 67.376 52.703v7.346l-82.719 3.333c-60.723 2.675-128.099 27.351-128.099 100.745 0 73.381 61.387 104.742 119.421 104.742 53.377 0 80.057-28.018 94.072-42.027l1.995 34.697h102.073v-185.479c0-55.369-13.999-87.4-39.358-111.421-26.013-24.014-61.374-38.020-122.751-38.020-61.387-0.003-112.762 19.34-140.777 33.356zM901.685 310.35h42.037c23.347 0 38.687 3.333 52.026 12.671 12.684 9.338 22.032 25.349 22.032 48.696 0 23.357-9.348 40.032-22.032 49.38-13.335 9.329-28.679 12.662-52.026 12.662h-42.037zM794.274 226.947v460.35h108.068v-170.129h56.716c47.371 0 89.398-9.348 120.089-34.697 30.684-26.016 48.042-61.367 48.042-110.747 0-49.37-17.358-84.724-48.042-110.083-30.69-25.342-72.714-34.69-120.089-34.69h-164.785zM2257.171 226.947v460.35h106.753v-99.414l29.346-28.688 80.731 128.105h122.761l-130.107-205.493 120.095-123.418h-122.751l-100.074 108.736v-240.174h-106.753zM2168.123 215.95c-31.332 0-56.745 25.404-56.745 56.736s25.414 56.736 56.745 56.736c31.332 0 56.742-25.404 56.742-56.736s-25.411-56.736-56.742-56.736z"></path>
</g>
</svg>
